<svg width="60" height="37" viewBox="0 0 60 37" fill="none" xmlns="http://www.w3.org/2000/svg">
<path d="M0 23.3781C3.12 15.5855 5.58 13.8336 13.8 13.6524C14.55 11.1757 15.33 8.63853 16.11 6.10139C17.94 0.2418 18.57 -0.211261 24.63 0.0605755C24.78 0.0605755 24.9 0.120984 25.17 0.181392C25.17 0.845882 25.17 1.51037 25.17 2.38629C21.87 2.11445 18.63 1.99364 18.78 6.76588C23.46 6.76588 28.2 6.76588 32.94 6.76588C34.29 6.76588 35.64 6.64507 36.99 6.79609C38.7 6.97731 39.33 6.22221 39.39 4.53078C38.1 4.22874 36.78 3.98711 35.49 3.62466C35.1 3.50384 34.83 3.05078 34.5 2.74874C34.89 2.59772 35.25 2.32588 35.64 2.32588C38.67 2.29568 41.73 2.29568 44.85 2.29568C44.85 3.11119 44.85 3.80588 44.85 4.56098C44.37 4.59119 43.92 4.62139 43.5 4.6516C42.18 4.6818 41.13 6.01078 41.61 7.24915C42.54 9.51445 43.59 11.7194 44.61 14.0149C48.57 12.8671 52.14 13.4108 55.35 15.8573C59.34 18.9079 60.93 24.0124 59.4 28.7847C57.87 33.5569 53.43 36.8189 48.42 36.9096C43.56 36.97 39 33.8287 37.44 29.0565C36.99 27.6973 36.3 27.2745 35.07 27.4859C31.8 28.0296 29.67 26.5194 27.66 24.0728C24.48 20.0859 21 16.401 17.64 12.6255C17.52 12.4745 17.34 12.3536 17.01 12.0516C16.74 12.8973 16.5 13.6222 16.23 14.4377C16.62 14.6794 16.98 14.921 17.37 15.1324C22.02 17.8508 24.24 23.1667 22.86 28.3014C21.45 33.5267 16.95 37.0002 11.61 37.0002C6.3 37.0002 1.77 33.4663 0.36 28.2712C0.24 27.8483 0.12 27.4255 0 26.9724C0 25.7945 0 24.5863 0 23.3781ZM12.9 16.5218C8.01 15.8271 3.81 18.9381 2.88 23.801C2.01 28.3618 5.01 32.8924 9.66 34.0402C14.19 35.1577 18.84 32.4091 20.19 27.8181C21.45 23.5594 19.23 18.6965 15.36 17.3373C14.55 19.8745 13.74 22.4116 12.93 24.9185C12.69 25.6736 12.39 26.61 11.34 26.2777C10.26 25.9455 10.41 24.9789 10.59 24.1332C10.71 23.5896 10.92 23.0761 11.07 22.5626C11.64 20.5389 12.27 18.5455 12.9 16.5218ZM39.96 27.5463C40.77 32.0467 45.93 35.0067 50.58 33.7985C55.59 32.4998 58.47 27.1536 56.79 22.2304C55.2 17.6091 50.01 14.921 45.87 16.703C46.92 19.0891 48 21.4451 49.05 23.8312C50.55 27.2442 50.34 27.5463 46.68 27.5463C44.43 27.5463 42.21 27.5463 39.96 27.5463ZM37.71 9.42384C31.14 9.42384 24.75 9.42384 18.06 9.42384C22.83 14.6491 27.36 19.6328 32.04 24.7675C33.99 19.512 35.85 14.4981 37.71 9.42384ZM46.8 25.0394C45.66 22.5022 44.58 20.0859 43.5 17.6696C40.8 19.512 39.39 22.17 39.6 25.0394C41.91 25.0394 44.25 25.0394 46.8 25.0394ZM42.33 15.072C41.64 13.5014 40.95 12.0516 40.14 10.2394C38.19 15.4042 36.42 20.1463 34.56 25.0394C35.19 25.0696 35.49 25.0998 35.76 25.0998C36 25.0998 36.24 25.0394 36.63 25.0091C36.93 20.841 38.7 17.4883 42.33 15.072Z" fill="#F2F2F2"/>
</svg>
