<svg width="87" height="61" viewBox="0 0 87 61" fill="none" xmlns="http://www.w3.org/2000/svg">
<g clip-path="url(#clip0)">
<path d="M87 25.9583C85.9173 30.9307 84.0226 35.629 79.808 38.4872C76.328 40.8755 75.516 43.7337 76.0186 47.4923C76.096 48.1971 76.0186 48.9018 76.0186 50.0764C73.66 48.7452 71.5333 47.6489 69.484 46.3569C67.86 45.3389 66.3133 45.1432 64.38 45.3781C55.0613 46.5135 46.516 44.595 39.4786 37.9782C30.74 29.717 30.8946 17.6579 39.6333 9.39669C50.5373 -0.939641 70.2573 -0.665572 80.8906 9.90567C84.1773 13.1554 86.0333 17.1489 86.9613 21.6515C87 23.061 87 24.5097 87 25.9583Z" fill="#C8DEF0" fill-opacity="0.5"/>
<path d="M0 25.1751C0.850667 20.9466 2.16533 16.8747 4.83333 13.3901C11.2907 4.97226 20.068 0.978677 30.3147 0.117316C34.104 -0.195906 37.9707 0.195622 41.7987 0.273928C41.8373 0.508844 41.9147 0.743761 41.9533 0.978677C41.412 1.33105 40.8707 1.72258 40.3293 2.07495C34.2587 6.18599 29.7733 11.5108 28.304 18.8715C26.3707 28.5422 29.7733 36.4119 36.888 42.7938C41.296 46.7483 46.5933 49.0974 52.316 50.3503C52.3547 50.5461 52.432 50.7418 52.4707 50.9376C49.5707 51.9947 46.7093 53.2476 43.732 54.0307C38.2027 55.4793 32.5573 55.6751 26.8733 54.6571C25.9453 54.5005 24.824 54.7354 23.9733 55.1661C20.5707 56.9671 17.2453 58.8856 13.5333 60.9607C13.5333 57.5544 13.4947 54.4613 13.572 51.3683C13.6107 50.1937 13.2627 49.4889 12.296 48.8234C5.8 44.3991 1.392 38.5653 0.232 30.539C0.232 30.4216 0.0773333 30.3432 0 30.2258C0 28.5422 0 26.8587 0 25.1751Z" fill="#C8DEF0" fill-opacity="0.5"/>
</g>
<defs>
<clipPath id="clip0">
<rect width="87" height="61" fill="white"/>
</clipPath>
</defs>
</svg>
