<svg width="14" height="14" viewBox="0 0 14 14" fill="none" xmlns="http://www.w3.org/2000/svg">
<path d="M14 2.1C14 5.36667 14 8.63333 14 11.8806C14 11.9 13.9806 11.9194 13.9806 11.9389C13.8444 12.775 13.3778 13.3778 12.6389 13.7472C12.4056 13.8639 12.1528 13.9028 11.9 13.9806C11.0056 13.9806 10.0917 13.9806 9.19722 13.9806C9.19722 13.9611 9.19722 13.9417 9.19722 13.9222C9.19722 12.2111 9.19722 10.5194 9.19722 8.80833C9.19722 8.76944 9.19722 8.73056 9.21667 8.69167C9.99444 8.69167 10.7528 8.69167 11.5306 8.69167C11.5306 7.91389 11.5306 7.13611 11.5306 6.35833C10.7528 6.35833 9.99444 6.35833 9.21667 6.35833C9.21667 6.08611 9.21667 5.81389 9.21667 5.56111C9.21667 5.48333 9.21667 5.40556 9.21667 5.34722C9.25556 5.01667 9.45 4.82222 9.8 4.82222C10.325 4.82222 10.8694 4.82222 11.3944 4.82222C11.4333 4.82222 11.4917 4.82222 11.5306 4.82222C11.5306 4.04444 11.5306 3.26667 11.5306 2.50833C10.85 2.50833 10.1694 2.50833 9.50833 2.50833C9.35278 2.50833 9.19722 2.54722 9.06111 2.58611C8.03056 2.91667 7.44722 3.65556 7.15556 4.66667C7 5.05556 7 5.46389 7 5.87222C7 6.02778 7 6.20278 7 6.37778C6.41667 6.37778 5.87222 6.37778 5.30833 6.37778C5.30833 6.41667 5.28889 6.45556 5.28889 6.475C5.28889 7.175 5.28889 7.89444 5.28889 8.59444C5.28889 8.69167 5.32778 8.71111 5.40556 8.71111C5.81389 8.71111 6.22222 8.71111 6.63056 8.71111C6.74722 8.71111 6.88333 8.71111 7 8.71111C7 10.4806 7 12.25 7 14C5.36667 14 3.73333 14 2.1 14C2.08056 14 2.06111 13.9806 2.04167 13.9806C0.855556 13.7667 0 12.775 0 11.5694C0 8.51667 0 5.46389 0 2.41111C0 1.06944 1.06944 0 2.41111 0C5.46389 0 8.51667 0 11.5889 0C12.5806 0 13.3 0.486111 13.7472 1.34167C13.8639 1.575 13.9222 1.84722 14 2.1Z" fill="#3C5A99"/>
</svg>
