<svg width="22" height="19" viewBox="0 0 22 19" fill="none" xmlns="http://www.w3.org/2000/svg">
<path d="M6.38416 0.0526139C2.86811 0.0526139 0 2.72115 0 5.99256C0 8.93559 2.45431 11.9285 4.78936 14.3174C7.12441 16.7063 9.45313 18.4506 9.45313 18.4506C9.4602 18.4558 9.46736 18.461 9.47461 18.466C9.8516 18.7309 10.3246 18.9031 10.838 18.935C10.8915 18.9439 10.9457 18.948 11 18.9473C11.0537 18.9479 11.1074 18.9438 11.1603 18.935C11.1631 18.9345 11.1658 18.934 11.1686 18.9334C11.6794 18.9004 12.1501 18.7297 12.5254 18.466C12.5326 18.461 12.5398 18.4558 12.5469 18.4506C12.5469 18.4506 14.8756 16.7063 17.2106 14.3174C19.5457 11.9285 22 8.93558 22 5.99256C22 2.72115 19.1319 0.0526123 15.6158 0.0526123C13.404 0.0526123 11.8376 1.18515 11 1.98698C10.1624 1.18515 8.59604 0.0526123 6.38417 0.0526123L6.38416 0.0526139ZM6.38416 1.62717C8.69518 1.62717 10.1012 3.3926 10.2414 3.57537C10.3875 3.83692 10.6783 4.00069 10.995 3.99976C11.0017 3.99984 11.0083 3.99984 11.0149 3.99976C11.0215 3.99932 11.0281 3.99881 11.0347 3.99823C11.0562 3.99745 11.0777 3.99591 11.0992 3.99361C11.3784 3.96511 11.6242 3.80957 11.7553 3.57845C11.8884 3.40445 13.2983 1.62717 15.6158 1.62717C18.2175 1.62717 20.3077 3.57195 20.3077 5.99256C20.3077 8.04166 18.1921 10.9722 15.9579 13.258C13.7314 15.5359 11.5143 17.1999 11.4991 17.2113C11.3505 17.3142 11.1854 17.3727 11 17.3727C10.8146 17.3727 10.6495 17.3142 10.5009 17.2113C10.4857 17.1999 8.26864 15.5359 6.04207 13.258C3.80789 10.9722 1.69231 8.04166 1.69231 5.99256C1.69231 3.57195 3.78253 1.62717 6.38416 1.62717Z" fill="#FF0317"/>
</svg>
