<svg width="16" height="16" viewBox="0 0 16 16" fill="none" xmlns="http://www.w3.org/2000/svg">
<path fill-rule="evenodd" clip-rule="evenodd" d="M8 1.87547C7.18929 1.86546 6.38466 2.01649 5.63277 2.31981C4.88087 2.62314 4.19667 3.07271 3.61985 3.64246C3.04302 4.21221 2.58504 4.89081 2.27246 5.6389C1.95988 6.38699 1.79892 7.1897 1.79892 8.00047C1.79892 8.81124 1.95988 9.61394 2.27246 10.362C2.58504 11.1101 3.04302 11.7887 3.61985 12.3585C4.19667 12.9282 4.88087 13.3778 5.63277 13.6811C6.38466 13.9844 7.18929 14.1355 8 14.1255C9.61136 14.1056 11.15 13.4515 12.2824 12.305C13.4148 11.1585 14.0499 9.61195 14.0499 8.00047C14.0499 6.38899 13.4148 4.84242 12.2824 3.69592C11.15 2.54942 9.61136 1.89536 8 1.87547ZM1 8C1 6.14348 1.7375 4.36301 3.05025 3.05025C4.36301 1.7375 6.14348 1 8 1C9.85652 1 11.637 1.7375 12.9497 3.05025C14.2625 4.36301 15 6.14348 15 8C15 9.85652 14.2625 11.637 12.9497 12.9497C11.637 14.2625 9.85652 15 8 15C6.14348 15 4.36301 14.2625 3.05025 12.9497C1.7375 11.637 1 9.85652 1 8H1Z" fill="#8BA0B4"/>
<rect x="7.25" y="7" width="1.5" height="5.5" rx="0.75" fill="#8BA0B4"/>
<circle cx="8" cy="5" r="1" fill="#8BA0B4"/>
</svg>
