<svg width="49" height="42" viewBox="0 0 49 42" fill="none" xmlns="http://www.w3.org/2000/svg">
<path d="M24.5148 41.9892C17.1877 41.9892 9.8606 41.9892 2.52285 41.9892C1.72411 41.9892 0.99992 41.8274 0.478077 41.1695C0.0414328 40.6194 -0.128965 40.037 0.0946821 39.3143C1.09577 36.0031 2.07556 32.681 3.04469 29.359C3.16184 28.9707 3.22574 28.5501 3.22574 28.151C3.23639 19.6518 3.23639 11.1525 3.22574 2.64253C3.22574 1.97381 3.30029 1.35901 3.73693 0.819723C4.25878 0.204931 4.94037 0 5.72846 0C11.3942 0.0107858 17.0493 0 22.715 0C29.5309 0 36.3468 0 43.1627 0C44.9519 0 45.7932 0.862866 45.7932 2.67488C45.7932 11.228 45.7932 19.7812 45.8039 28.3451C45.8039 28.6795 45.8784 29.0247 45.9743 29.3482C46.9434 32.6703 47.8912 35.9923 48.9349 39.2928C49.2544 40.2958 48.5515 41.6872 47.3055 41.9245C47.0286 41.9784 46.7411 41.9784 46.4535 41.9784C39.1371 41.9892 31.8313 41.9892 24.5148 41.9892ZM24.4829 26.5116C30.5746 26.5116 36.6556 26.5116 42.7474 26.5116C43.4822 26.5116 43.578 26.4145 43.578 25.6703C43.578 18.1525 43.578 10.6456 43.578 3.12789C43.578 2.29738 43.5035 2.22188 42.7048 2.22188C30.5639 2.22188 18.4231 2.22188 6.28225 2.22188C5.51546 2.22188 5.43026 2.30817 5.43026 3.08475C5.43026 10.5593 5.43026 18.0447 5.43026 25.5193C5.43026 26.4576 5.47286 26.5008 6.3781 26.5008C12.4166 26.5116 18.4444 26.5116 24.4829 26.5116ZM24.4616 39.7673C25.8247 39.7673 27.1986 39.7781 28.5618 39.7673C29.3285 39.7673 29.7332 39.2928 29.68 38.527C29.6267 37.7935 29.5735 37.0601 29.5202 36.3267C29.467 35.5609 29.0516 35.1402 28.2849 35.1402C25.7608 35.1294 23.2475 35.1294 20.7235 35.1402C19.9886 35.1402 19.5413 35.5824 19.4881 36.3374C19.4348 37.0169 19.4029 37.6965 19.339 38.376C19.2644 39.3143 19.6585 39.7673 20.5744 39.7673C21.8736 39.7673 23.1623 39.7673 24.4616 39.7673Z" fill="#F2F2F2"/>
</svg>
