<svg width="16" height="15" viewBox="0 0 16 15" fill="none" xmlns="http://www.w3.org/2000/svg">
<path d="M7.7583 0.636247C7.44172 0.665215 7.15985 0.895946 7.08447 1.22951L6.66846 3.06349L4.63525 5.32228C4.387 5.59753 4.25 5.9552 4.25 6.3257V13.25C4.25 14.0788 4.92125 14.75 5.75 14.75H11.7734C12.3292 14.75 12.8324 14.4228 13.0581 13.9151L15.3096 8.84816C15.4348 8.56766 15.5 8.26357 15.5 7.95607V7.25002C15.5 6.42502 14.825 5.75002 14 5.75002H8.75C8.75 5.75002 9.5 3.97198 9.5 2.64748C9.5 1.43773 8.72182 0.908265 8.08057 0.677264C7.97351 0.638451 7.86383 0.626592 7.7583 0.636248V0.636247ZM1.625 5.75002C1.004 5.75002 0.5 6.25402 0.5 6.87502V13.625C0.5 14.246 1.004 14.75 1.625 14.75C2.246 14.75 2.75 14.246 2.75 13.625V6.87502C2.75 6.25402 2.246 5.75002 1.625 5.75002Z" fill="url(#paint0_linear)"/>
<defs>
<linearGradient id="paint0_linear" x1="8" y1="0.633057" x2="8" y2="14.75" gradientUnits="userSpaceOnUse">
<stop stop-color="#8BA0B4"/>
</linearGradient>
</defs>
</svg>
