<svg width="10" height="14" viewBox="0 0 10 14" fill="none" xmlns="http://www.w3.org/2000/svg">
<path d="M5.00002 0.279785C2.52486 0.279785 0.52002 2.28463 0.52002 4.75978C0.52002 6.80619 1.60064 9.00572 2.66377 10.7098C3.72689 12.4138 4.79002 13.6235 4.79002 13.6235C4.84361 13.6837 4.92017 13.7187 5.00002 13.7187C5.07986 13.7187 5.15642 13.6837 5.21002 13.6235C5.21002 13.6235 6.27424 12.3887 7.33627 10.6748C8.3983 8.96088 9.48002 6.76682 9.48002 4.75978C9.48002 2.28463 7.47517 0.279785 5.00002 0.279785ZM5.00002 0.839785C7.1733 0.839785 8.92002 2.5865 8.92002 4.75978C8.92002 6.56119 7.90174 8.70275 6.86377 10.3773C5.99424 11.7806 5.25814 12.684 5.00002 12.9935C4.73971 12.6862 4.00361 11.8024 3.13627 10.4123C2.09939 8.74978 1.08002 6.60494 1.08002 4.75978C1.08002 2.5865 2.82674 0.839785 5.00002 0.839785ZM5.00002 3.07978C3.92049 3.07978 3.04002 3.96025 3.04002 5.03978C3.04002 6.11932 3.92049 6.99978 5.00002 6.99978C6.07955 6.99978 6.96002 6.11932 6.96002 5.03978C6.96002 3.96025 6.07955 3.07978 5.00002 3.07978ZM5.00002 3.63978C5.77658 3.63978 6.40002 4.26322 6.40002 5.03978C6.40002 5.81635 5.77658 6.43978 5.00002 6.43978C4.22346 6.43978 3.60002 5.81635 3.60002 5.03978C3.60002 4.26322 4.22346 3.63978 5.00002 3.63978Z" fill="url(#paint0_linear)"/>
<defs>
<linearGradient id="paint0_linear" x1="5.00002" y1="0.279785" x2="5.00002" y2="13.7187" gradientUnits="userSpaceOnUse">
<stop stop-color="#8BA0B4"/>
</linearGradient>
</defs>
</svg>
