<svg width="19" height="15" viewBox="0 0 19 15" fill="none" xmlns="http://www.w3.org/2000/svg">
<g clip-path="url(#clip0)">
<path d="M17.3398 13.393C17.7472 13.393 18.1002 13.2817 18.4004 13.0618L13.2653 8.81193C13.1421 8.88495 13.0226 8.95595 12.9098 9.02346C12.5255 9.25777 12.2136 9.44062 11.9741 9.57164C11.7347 9.70296 11.4161 9.83681 11.0184 9.97346C10.6204 10.1103 10.2496 10.1785 9.90568 10.1785H9.89561H9.88554C9.54157 10.1785 9.1708 10.1103 8.77286 9.97346C8.37492 9.83681 8.05631 9.70296 7.81708 9.57164C7.57761 9.44062 7.26588 9.2578 6.8814 9.02346C6.77425 8.95845 6.65543 8.88713 6.52696 8.81079L1.39087 13.0618C1.69095 13.2817 2.0442 13.393 2.45159 13.393H17.3398Z" fill="url(#paint0_linear)"/>
<path d="M1.85492 6.1358C1.47066 5.92379 1.12991 5.68098 0.833252 5.40747V11.8734L5.35931 8.12765C4.45384 7.6045 3.28719 6.94131 1.85492 6.1358Z" fill="url(#paint1_linear)"/>
<path d="M17.9469 6.1358C16.5693 6.90748 15.3984 7.57181 14.4341 8.12915L18.9584 11.8735V5.40747C18.6683 5.67547 18.3312 5.91812 17.9469 6.1358Z" fill="url(#paint2_linear)"/>
<path d="M17.3406 1.60718H2.45243C1.93303 1.60718 1.5337 1.75233 1.25396 2.04234C0.973984 2.33248 0.834229 2.69534 0.834229 3.1305C0.834229 3.482 1.01969 3.86286 1.39046 4.27319C1.76122 4.68335 2.15574 5.00552 2.57382 5.23986C2.80302 5.37388 3.4942 5.77154 4.64736 6.43271C5.26986 6.78971 5.81121 7.10088 6.27642 7.3694C6.67295 7.59805 7.01492 7.79607 7.29726 7.96039C7.32967 7.97921 7.38065 8.00939 7.4483 8.04942C7.52119 8.09275 7.61343 8.14773 7.72722 8.21573C7.94635 8.34689 8.12839 8.45291 8.27338 8.5339C8.41817 8.61492 8.5936 8.70542 8.7994 8.80591C9.00503 8.90626 9.19899 8.98173 9.38103 9.03192C9.5631 9.08208 9.73165 9.10725 9.88671 9.10725H9.89678H9.90685C10.0619 9.10725 10.2305 9.08208 10.4126 9.03192C10.5946 8.98173 10.7884 8.90643 10.9942 8.80591C11.1998 8.70542 11.375 8.61473 11.5202 8.5339C11.6652 8.45291 11.8472 8.34692 12.0664 8.21573C12.18 8.14773 12.2722 8.09272 12.3451 8.04956C12.4128 8.00936 12.4637 7.97938 12.4963 7.96039C12.7163 7.83373 13.059 7.63654 13.5199 7.37172C14.3584 6.88955 15.5933 6.17988 17.2299 5.23986C17.7221 4.95536 18.1333 4.61203 18.4638 4.21036C18.7936 3.8087 18.959 3.38737 18.959 2.94651C18.959 2.57818 18.7987 2.26301 18.4787 2.00051C18.1583 1.73833 17.7789 1.60718 17.3406 1.60718Z" fill="url(#paint3_linear)"/>
</g>
<defs>
<linearGradient id="paint0_linear" x1="9.89561" y1="8.81079" x2="9.89561" y2="13.393" gradientUnits="userSpaceOnUse">
<stop stop-color="#8BA0B4"/>
</linearGradient>
<linearGradient id="paint1_linear" x1="3.09628" y1="5.40747" x2="3.09628" y2="11.8734" gradientUnits="userSpaceOnUse">
<stop stop-color="#8BA0B4"/>
</linearGradient>
<linearGradient id="paint2_linear" x1="16.6962" y1="5.40747" x2="16.6962" y2="11.8735" gradientUnits="userSpaceOnUse">
<stop stop-color="#8BA0B4"/>
</linearGradient>
<linearGradient id="paint3_linear" x1="9.89663" y1="1.60718" x2="9.89663" y2="9.10725" gradientUnits="userSpaceOnUse">
<stop stop-color="#8BA0B4"/>
</linearGradient>
<clipPath id="clip0">
<rect width="18.125" height="15" fill="white" transform="translate(0.833252)"/>
</clipPath>
</defs>
</svg>
