<svg width="15" height="14" viewBox="0 0 15 14" fill="none" xmlns="http://www.w3.org/2000/svg">
<path d="M14.9617 7.82512C14.801 7.70891 14.7245 7.66242 14.6633 7.60044C13.7143 6.66298 12.5663 6.26785 11.25 6.37631C10.9286 6.39956 10.148 5.9192 10.0791 5.61704C10.0561 5.50083 10.1709 5.30714 10.2781 5.21417C11.5026 4.06752 12.7347 2.92861 13.9668 1.78196C14.0587 1.69673 14.1582 1.61151 14.2424 1.51854C14.4643 1.27061 14.4719 0.914222 14.2577 0.712784C13.9975 0.472607 13.7755 0.581074 13.5536 0.79026C11.8469 2.37853 10.1327 3.9668 8.42603 5.55506C7.73725 6.19037 7.24746 6.19812 6.56633 5.56281C4.89031 3.99779 3.21429 2.43276 1.53062 0.875484C1.15562 0.52684 0.933681 0.495849 0.711742 0.736027C0.489803 0.983951 0.551028 1.3326 0.88011 1.65025C2.13521 2.82789 3.39031 3.99779 4.64542 5.16768C5.01276 5.50858 5.01276 5.56281 4.65307 5.89596C3.39031 7.06586 2.13521 8.228 0.872456 9.40564C0.765314 9.50636 0.604599 9.63807 0.596946 9.76204C0.589293 9.97122 0.619905 10.2346 0.742354 10.3818C0.926028 10.5988 1.17858 10.5213 1.38521 10.3276C2.4796 9.30492 3.58164 8.28224 4.68368 7.25955C4.95919 7.00387 5.24235 6.7637 5.49491 6.50028C5.68623 6.29884 5.82399 6.33758 6.04593 6.48478C6.42093 6.72496 6.82654 6.97288 7.25511 7.0736C7.85205 7.21306 8.37246 6.93414 8.82399 6.53901C9.12246 6.27559 9.39797 6.31433 9.58164 6.67847C9.61225 6.7482 9.51276 6.94964 9.42093 7.01162C8.37246 7.70116 7.69899 8.64637 7.45409 9.886C7.40052 10.1727 7.40052 10.4748 7.40052 10.7692C7.40052 11.0094 7.33164 11.1179 7.07144 11.1179C4.9898 11.1101 2.91582 11.1179 0.834191 11.1101C0.336742 11.1101 0.00766054 10.777 -0.00764559 10.2579C-0.0229517 9.85501 -0.0152986 9.45988 -0.0152986 9.057C-0.0152986 6.4073 -0.0152986 3.76536 -0.0152986 1.11566C0.00766054 0.26342 0.267865 0 1.10205 0C5.37246 0 9.64286 0 13.9209 0C14.7245 0 15 0.271168 15 1.08467C15 3.16104 15 5.24516 15 7.32153C14.9924 7.46098 14.977 7.59269 14.9617 7.82512Z" fill="url(#paint0_linear)"/>
<path d="M11.6633 14C9.81893 13.9922 8.33424 12.4737 8.3572 10.6143C8.38016 8.77033 9.86485 7.29053 11.6939 7.29828C13.5383 7.30603 15.0154 8.81682 15 10.684C14.9771 12.5434 13.5077 14.0077 11.6633 14ZM11.6786 11.1256C12.222 11.1256 12.773 11.1256 13.3164 11.1256C13.7143 11.1256 13.9286 10.9552 13.9286 10.653C13.9286 10.3431 13.722 10.1727 13.324 10.1727C12.2296 10.1727 11.1353 10.1727 10.0409 10.1727C9.66587 10.1727 9.42097 10.3663 9.44393 10.6608C9.47454 11.0094 9.70413 11.1334 10.0256 11.1256C10.5842 11.1179 11.1276 11.1256 11.6786 11.1256Z" fill="url(#paint1_linear)"/>
<defs>
<linearGradient id="paint0_linear" x1="7.4914" y1="0" x2="7.4914" y2="11.1179" gradientUnits="userSpaceOnUse">
<stop stop-color="#8BA0B4"/>
</linearGradient>
<linearGradient id="paint1_linear" x1="11.6785" y1="7.29825" x2="11.6785" y2="14" gradientUnits="userSpaceOnUse">
<stop stop-color="#8BA0B4"/>
</linearGradient>
</defs>
</svg>
