<svg width="17" height="17" viewBox="0 0 17 17" fill="none" xmlns="http://www.w3.org/2000/svg">
<path fill-rule="evenodd" clip-rule="evenodd" d="M13.0193 5.44096C13.0647 5.42651 13.1244 5.45542 13.1841 5.53494C13.1841 5.53494 13.1841 5.53494 15.8818 8.2C16.0394 8.35904 16.0394 8.6 15.8818 8.71807C15.8818 8.71807 15.8818 8.71807 13.1841 11.4241C13.1244 11.5036 13.0647 11.5229 13.0193 11.4988C12.974 11.4747 12.9453 11.4048 12.9453 11.3036V5.61446C12.9453 5.51566 12.974 5.45542 13.0193 5.44096Z" fill="#FF0317"/>
<path fill-rule="evenodd" clip-rule="evenodd" d="M8.40451 1H8.5955L8.77933 1.07711C8.77933 1.07711 8.77933 1.07711 11.5559 3.86265C11.6752 4.02169 11.6347 4.14217 11.4365 4.14217C11.4365 4.14217 11.4365 4.14217 10.2858 4.14217C10.0876 4.14217 9.93005 4.3012 9.93005 4.5012C9.93005 4.5012 9.93005 4.5012 9.93005 6.56867C9.93005 6.76867 9.7701 6.92771 9.53136 6.92771C9.53136 6.92771 9.53135 6.92771 7.50923 6.92771C7.31108 6.92771 7.15112 6.76867 7.15112 6.56867C7.15112 6.56867 7.15112 6.56867 7.15112 4.5012C7.15112 4.3012 6.99356 4.14217 6.79301 4.14217H5.5635C5.36535 4.14217 5.32477 4.02169 5.44414 3.86265C5.44414 3.86265 5.44414 3.86265 8.22306 1.07711L8.40451 1Z" fill="#FF0317"/>
<path fill-rule="evenodd" clip-rule="evenodd" d="M4.05467 5.38072C4.10481 5.40482 4.13584 5.4747 4.13584 5.5759V11.3831C4.13584 11.4843 4.10481 11.5446 4.05467 11.5639C4.00692 11.5831 3.93769 11.5639 3.85652 11.5036C3.85652 11.5036 3.85652 11.5036 1.11818 8.71807C0.960608 8.6 0.960608 8.35904 1.11818 8.2C1.11818 8.2 1.11818 8.2 3.85652 5.45542C3.93769 5.3759 4.00692 5.35663 4.05467 5.38072Z" fill="#FF0317"/>
<path fill-rule="evenodd" clip-rule="evenodd" d="M7.50923 9.95181C7.50923 9.95181 7.50923 9.95181 9.53135 9.95181C9.77009 9.95181 9.93005 10.1108 9.93005 10.3108C9.93005 10.3108 9.93005 10.3108 9.93005 12.4988C9.93005 12.7373 10.0876 12.8964 10.2858 12.8964H11.3577C11.5559 12.8964 11.6347 13.0145 11.4771 13.1349C11.4771 13.1349 11.4771 13.1349 8.77933 15.8795C8.69815 15.959 8.60027 16 8.5 16C8.40212 16 8.30185 15.959 8.22306 15.8795C8.22306 15.8795 8.22306 15.8795 5.52531 13.1349C5.36535 13.0145 5.44414 12.8964 5.64229 12.8964C5.64229 12.8964 5.64229 12.8964 6.79301 12.8964C6.99355 12.8964 7.15112 12.7373 7.15112 12.4988C7.15112 12.4988 7.15112 12.4988 7.15112 10.3108C7.15112 10.1108 7.31108 9.95181 7.50923 9.95181Z" fill="#FF0317"/>
<path fill-rule="evenodd" clip-rule="evenodd" d="M13.0193 5.44096C13.0647 5.42651 13.1244 5.45542 13.1841 5.53494C13.1841 5.53494 13.1841 5.53494 15.8818 8.2C16.0394 8.35904 16.0394 8.6 15.8818 8.71807C15.8818 8.71807 15.8818 8.71807 13.1841 11.4241C13.1244 11.5036 13.0647 11.5229 13.0193 11.4988C12.974 11.4747 12.9453 11.4048 12.9453 11.3036V5.61446C12.9453 5.51566 12.974 5.45542 13.0193 5.44096Z" stroke="white" stroke-width="0.25"/>
<path fill-rule="evenodd" clip-rule="evenodd" d="M8.40451 1H8.5955L8.77933 1.07711C8.77933 1.07711 8.77933 1.07711 11.5559 3.86265C11.6752 4.02169 11.6347 4.14217 11.4365 4.14217C11.4365 4.14217 11.4365 4.14217 10.2858 4.14217C10.0876 4.14217 9.93005 4.3012 9.93005 4.5012C9.93005 4.5012 9.93005 4.5012 9.93005 6.56867C9.93005 6.76867 9.7701 6.92771 9.53136 6.92771C9.53136 6.92771 9.53135 6.92771 7.50923 6.92771C7.31108 6.92771 7.15112 6.76867 7.15112 6.56867C7.15112 6.56867 7.15112 6.56867 7.15112 4.5012C7.15112 4.3012 6.99356 4.14217 6.79301 4.14217H5.5635C5.36535 4.14217 5.32477 4.02169 5.44414 3.86265C5.44414 3.86265 5.44414 3.86265 8.22306 1.07711L8.40451 1Z" stroke="white" stroke-width="0.25"/>
<path fill-rule="evenodd" clip-rule="evenodd" d="M4.05467 5.38072C4.10481 5.40482 4.13584 5.4747 4.13584 5.5759V11.3831C4.13584 11.4843 4.10481 11.5446 4.05467 11.5639C4.00692 11.5831 3.93769 11.5639 3.85652 11.5036C3.85652 11.5036 3.85652 11.5036 1.11818 8.71807C0.960608 8.6 0.960608 8.35904 1.11818 8.2C1.11818 8.2 1.11818 8.2 3.85652 5.45542C3.93769 5.3759 4.00692 5.35663 4.05467 5.38072Z" stroke="white" stroke-width="0.25"/>
<path fill-rule="evenodd" clip-rule="evenodd" d="M7.50923 9.95181C7.50923 9.95181 7.50923 9.95181 9.53135 9.95181C9.77009 9.95181 9.93005 10.1108 9.93005 10.3108C9.93005 10.3108 9.93005 10.3108 9.93005 12.4988C9.93005 12.7373 10.0876 12.8964 10.2858 12.8964H11.3577C11.5559 12.8964 11.6347 13.0145 11.4771 13.1349C11.4771 13.1349 11.4771 13.1349 8.77933 15.8795C8.69815 15.959 8.60027 16 8.5 16C8.40212 16 8.30185 15.959 8.22306 15.8795C8.22306 15.8795 8.22306 15.8795 5.52531 13.1349C5.36535 13.0145 5.44414 12.8964 5.64229 12.8964C5.64229 12.8964 5.64229 12.8964 6.79301 12.8964C6.99355 12.8964 7.15112 12.7373 7.15112 12.4988C7.15112 12.4988 7.15112 12.4988 7.15112 10.3108C7.15112 10.1108 7.31108 9.95181 7.50923 9.95181Z" stroke="white" stroke-width="0.25"/>
</svg>
