<svg width="14" height="14" viewBox="0 0 14 14" fill="none" xmlns="http://www.w3.org/2000/svg">
<g clip-path="url(#clip0)">
<path d="M11.7199 0H2.2801C1.01942 0 0 1.01942 0 2.2801V11.7233C0 12.9806 1.01942 14 2.2801 14H11.7233C12.9806 14 14.0034 12.9806 14.0034 11.7199V2.2801C14 1.01942 12.9806 0 11.7199 0ZM3.4932 4.31553C4.3835 4.31553 5.27379 4.31553 6.16408 4.31553C7.60825 4.31553 9.05583 4.31553 10.5 4.31553C10.6223 4.31553 10.7311 4.33932 10.833 4.42087C9.55534 5.47427 8.28107 6.52767 7 7.58447C5.71893 6.52767 4.44466 5.47427 3.16699 4.42087C3.26893 4.33932 3.37427 4.31553 3.4932 4.31553ZM11.0063 9.17476C11.0063 9.43981 10.867 9.6267 10.6291 9.67427C10.5917 9.68107 10.551 9.68447 10.5102 9.68447C8.17233 9.68447 5.83107 9.68447 3.4932 9.68447C3.19417 9.68447 2.99369 9.48738 2.99029 9.19515C2.99029 7.81553 2.99029 6.43932 2.99029 5.05971C2.99029 5.03932 2.99369 5.01893 2.99369 4.97476C4.33932 6.08592 5.66456 7.1801 7 8.28107C8.33204 7.1835 9.66068 6.08592 11.0029 4.97816C11.0063 5.02573 11.0097 5.05631 11.0097 5.0835C11.0097 6.44951 11.0097 7.81214 11.0063 9.17476Z" fill="#F2994A"/>
</g>
<defs>
<clipPath id="clip0">
<rect width="14" height="14" fill="white"/>
</clipPath>
</defs>
</svg>
