<svg width="20" height="11" viewBox="0 0 20 11" fill="none" xmlns="http://www.w3.org/2000/svg">
<path opacity="0.6" d="M10.0026 0C2.8601 0 0.134471 5.24219 0.134471 5.24219L0 5.5L0.134471 5.75781C0.134471 5.75781 2.8601 11 10.0026 11C17.1451 11 19.8707 5.75781 19.8707 5.75781L20 5.5L19.8707 5.24219C19.8707 5.24219 17.1451 0 10.0026 0ZM10.0026 1.22222C12.5679 1.22222 14.6367 3.13194 14.6367 5.5C14.6367 7.86806 12.5679 9.77778 10.0026 9.77778C7.43729 9.77778 5.3685 7.86806 5.3685 5.5C5.3685 3.13194 7.43729 1.22222 10.0026 1.22222ZM5.29092 2.17231C4.5203 3.09852 4.04448 4.24436 4.04448 5.5C4.04448 6.75564 4.5203 7.90148 5.29092 8.82769C2.75149 7.66276 1.71709 5.81033 1.55159 5.5C1.71709 5.18967 2.75149 3.33724 5.29092 2.17231ZM14.7142 2.17231C17.2537 3.33724 18.2881 5.18967 18.4536 5.5C18.2881 5.81033 17.2537 7.66276 14.7142 8.82769C15.4849 7.90148 15.9607 6.75564 15.9607 5.5C15.9607 4.24436 15.4849 3.09852 14.7142 2.17231ZM10.0026 3.66667C8.90613 3.66667 8.01655 4.48785 8.01655 5.5C8.01655 6.51215 8.90613 7.33333 10.0026 7.33333C11.099 7.33333 11.9886 6.51215 11.9886 5.5C11.9886 4.48785 11.099 3.66667 10.0026 3.66667Z" fill="#212529"/>
</svg>
