<svg width="13" height="10" viewBox="0 0 13 10" fill="none" xmlns="http://www.w3.org/2000/svg">
<g clip-path="url(#clip0)">
<path d="M1.61792 5.80347C5.41801 5.80347 9.2 5.80347 12.988 5.80347C12.991 5.85741 12.9971 5.90284 12.9971 5.94827C12.9971 7.01301 12.985 8.07774 13.0031 9.13964C13.0122 9.68195 12.5805 9.99995 12.0946 9.99711C8.89514 9.98575 5.69872 9.99143 2.49928 9.99143C1.94692 9.99143 1.61792 9.67627 1.61792 9.15952C1.61792 8.0891 1.61792 7.02153 1.61792 5.95111C1.61792 5.90852 1.61792 5.86025 1.61792 5.80347ZM7.70592 7.32533C7.70592 7.53544 7.71497 7.72851 7.7029 7.91874C7.69384 8.05219 7.7361 8.09478 7.884 8.09478C9.2664 8.0891 10.6488 8.09194 12.0312 8.09194C12.0795 8.09194 12.1278 8.08626 12.1851 8.08342C12.1851 7.82505 12.1851 7.57803 12.1851 7.32533C10.6911 7.32533 9.21207 7.32533 7.70592 7.32533Z" fill="#27AE60"/>
<path d="M12.9969 4.25047C9.19074 4.25047 5.41479 4.25047 1.59961 4.25047C1.61772 3.92111 1.59961 3.59175 1.66299 3.27659C1.73242 2.92736 2.07349 2.73145 2.49606 2.73145C3.52229 2.73145 4.54853 2.73145 5.57477 2.73145C7.74194 2.73145 9.90911 2.73145 12.0763 2.73145C12.6679 2.73145 12.9908 3.03241 12.9939 3.58891C12.9969 3.8047 12.9969 4.02049 12.9969 4.25047Z" fill="#27AE60"/>
<path d="M11.4081 1.95958C10.9071 1.95958 10.4151 1.95958 9.92307 1.95958C7.44803 1.95958 4.97601 1.95958 2.50097 1.95958C1.49888 1.95958 0.792585 2.62398 0.789566 3.56946C0.786548 4.38718 0.789566 5.2049 0.76542 6.02829C0.705053 5.80115 0.644686 5.57117 0.587337 5.34402C0.403218 4.60296 0.216081 3.86191 0.028944 3.12369C-0.094808 2.62965 0.152696 2.25203 0.677888 2.13278C2.75451 1.66713 4.83113 1.20149 6.90473 0.738683C7.9702 0.500183 9.03266 0.261682 10.0981 0.0231808C10.5298 -0.0733553 10.9553 0.150949 11.067 0.545611C11.1938 0.988541 11.2964 1.43715 11.4081 1.88292C11.4141 1.89712 11.4081 1.91699 11.4081 1.95958Z" fill="#27AE60"/>
</g>
<defs>
<clipPath id="clip0">
<rect width="13" height="10" fill="white"/>
</clipPath>
</defs>
</svg>
