<svg width="13" height="12" viewBox="0 0 13 12" fill="none" xmlns="http://www.w3.org/2000/svg">
<g filter="url(#filter0_d)">
<path fill-rule="evenodd" clip-rule="evenodd" d="M6.49995 2.99999C5.12211 2.99999 3.99995 4.12215 3.99995 5.49999C3.99995 6.87783 5.12211 7.99999 6.49995 7.99999C7.87779 7.99999 8.99995 6.87783 8.99995 5.49999C8.99995 4.12215 7.87779 2.99999 6.49995 2.99999ZM8.54541 5.49999C8.54541 4.36806 7.63188 3.45453 6.49995 3.45453C5.36803 3.45453 4.4545 4.36806 4.4545 5.49999C4.4545 6.63191 5.36803 7.54544 6.49995 7.54544C7.63188 7.54544 8.54541 6.63191 8.54541 5.49999Z" fill="white"/>
<path d="M4.96451 0.299988C4.68318 0.299988 4.44755 0.462488 4.30638 0.673738C4.30638 0.676784 4.30638 0.678816 4.30638 0.681863L3.89201 1.33999H1.56013C0.846147 1.33999 0.260132 1.926 0.260132 2.63999V8.87999C0.260132 9.59397 0.846147 10.18 1.56013 10.18H11.4401C12.1541 10.18 12.7401 9.59397 12.7401 8.87999V2.63999C12.7401 1.926 12.1541 1.33999 11.4401 1.33999H9.08388L8.66951 0.681863C8.66951 0.678816 8.66951 0.676784 8.66951 0.673738C8.52833 0.462488 8.29271 0.299988 8.01138 0.299988H4.96451ZM4.96451 0.819988H8.01138C8.09466 0.819988 8.16373 0.865691 8.23076 0.966238L8.72638 1.73811C8.77412 1.81327 8.85638 1.85999 8.94576 1.85999H11.4401C11.8708 1.85999 12.2201 2.20936 12.2201 2.63999V8.87999C12.2201 9.31061 11.8708 9.65999 11.4401 9.65999H1.56013C1.12951 9.65999 0.780132 9.31061 0.780132 8.87999V2.63999C0.780132 2.20936 1.12951 1.85999 1.56013 1.85999H4.03013C4.11951 1.85999 4.20177 1.81327 4.24951 1.73811L4.73701 0.966238L4.74513 0.958113C4.81013 0.866707 4.88529 0.819988 4.96451 0.819988Z" fill="white"/>
<path fill-rule="evenodd" clip-rule="evenodd" d="M6.49995 2.99999C5.12211 2.99999 3.99995 4.12215 3.99995 5.49999C3.99995 6.87783 5.12211 7.99999 6.49995 7.99999C7.87779 7.99999 8.99995 6.87783 8.99995 5.49999C8.99995 4.12215 7.87779 2.99999 6.49995 2.99999ZM8.54541 5.49999C8.54541 4.36806 7.63188 3.45453 6.49995 3.45453C5.36803 3.45453 4.4545 4.36806 4.4545 5.49999C4.4545 6.63191 5.36803 7.54544 6.49995 7.54544C7.63188 7.54544 8.54541 6.63191 8.54541 5.49999Z" stroke="white" stroke-width="0.5"/>
<path d="M4.96451 0.299988C4.68318 0.299988 4.44755 0.462488 4.30638 0.673738C4.30638 0.676784 4.30638 0.678816 4.30638 0.681863L3.89201 1.33999H1.56013C0.846147 1.33999 0.260132 1.926 0.260132 2.63999V8.87999C0.260132 9.59397 0.846147 10.18 1.56013 10.18H11.4401C12.1541 10.18 12.7401 9.59397 12.7401 8.87999V2.63999C12.7401 1.926 12.1541 1.33999 11.4401 1.33999H9.08388L8.66951 0.681863C8.66951 0.678816 8.66951 0.676784 8.66951 0.673738C8.52833 0.462488 8.29271 0.299988 8.01138 0.299988H4.96451ZM4.96451 0.819988H8.01138C8.09466 0.819988 8.16373 0.865691 8.23076 0.966238L8.72638 1.73811C8.77412 1.81327 8.85638 1.85999 8.94576 1.85999H11.4401C11.8708 1.85999 12.2201 2.20936 12.2201 2.63999V8.87999C12.2201 9.31061 11.8708 9.65999 11.4401 9.65999H1.56013C1.12951 9.65999 0.780132 9.31061 0.780132 8.87999V2.63999C0.780132 2.20936 1.12951 1.85999 1.56013 1.85999H4.03013C4.11951 1.85999 4.20177 1.81327 4.24951 1.73811L4.73701 0.966238L4.74513 0.958113C4.81013 0.866707 4.88529 0.819988 4.96451 0.819988Z" stroke="white" stroke-width="0.5"/>
</g>
<defs>
<filter id="filter0_d" x="0.0101318" y="0.0499878" width="12.98" height="11.38" filterUnits="userSpaceOnUse" color-interpolation-filters="sRGB">
<feFlood flood-opacity="0" result="BackgroundImageFix"/>
<feColorMatrix in="SourceAlpha" type="matrix" values="0 0 0 0 0 0 0 0 0 0 0 0 0 0 0 0 0 0 127 0"/>
<feOffset dy="1"/>
<feColorMatrix type="matrix" values="0 0 0 0 0 0 0 0 0 0 0 0 0 0 0 0 0 0 0.45 0"/>
<feBlend mode="normal" in2="BackgroundImageFix" result="effect1_dropShadow"/>
<feBlend mode="normal" in="SourceGraphic" in2="effect1_dropShadow" result="shape"/>
</filter>
</defs>
</svg>
