<svg width="11" height="16" viewBox="0 0 11 16" fill="none" xmlns="http://www.w3.org/2000/svg">
<path d="M5.90142 0C6.17342 0.0478059 6.44829 0.0806724 6.71743 0.146406C8.95358 0.67227 10.6429 2.59646 10.9464 4.96285C11.1382 6.44782 10.8146 7.81327 9.99005 9.0383C8.63863 11.0402 7.27861 13.0331 5.92146 15.032C5.67523 15.3935 5.33165 15.3935 5.08541 15.032C3.72254 13.0271 2.35393 11.0342 1.00537 9.02336C-1.29663 5.58731 0.558715 0.89636 4.4956 0.0956118C4.69602 0.0537816 4.8993 0.0328665 5.10259 0C5.36887 0 5.63514 0 5.90142 0ZM5.49198 7.64894C6.50269 7.65193 7.33015 6.80039 7.33301 5.74866C7.33588 4.69394 6.52273 3.82746 5.51775 3.82447C4.49846 3.81849 3.671 4.67302 3.66813 5.73073C3.66527 6.78246 4.48701 7.64595 5.49198 7.64894Z" fill="#27AE60"/>
</svg>
