<svg width="15" height="14" viewBox="0 0 15 14" fill="none" xmlns="http://www.w3.org/2000/svg">
<g clip-path="url(#clip0)">
<path d="M4.40763 14C4.40763 13.9443 4.41917 13.8886 4.41917 13.8329C4.41917 9.90135 4.41917 5.95863 4.41917 2.02705C4.41917 1.97136 4.41917 1.90453 4.41917 1.83771C2.94224 1.83771 1.47686 1.83771 0.0114746 1.83771C0.0114746 5.90294 0.0114746 9.95704 0.0114746 14.0111C1.46532 14 2.93071 14 4.40763 14Z" fill="#163C9C"/>
<path d="M9.46147 14C9.46147 11.1599 9.46147 8.33097 9.46147 5.47974C7.98454 5.47974 6.5307 5.47974 5.05377 5.47974C5.05377 5.53542 5.04224 5.57997 5.04224 5.62453C5.04224 8.37552 5.04224 11.1154 5.04224 13.8664C5.04224 13.9109 5.04224 13.9555 5.05377 13.9889C6.51916 14 7.99608 14 9.46147 14Z" fill="#163C9C"/>
<path d="M14.5153 14C14.5153 13.9332 14.5038 13.8775 14.5038 13.8107C14.5038 12.3182 14.5038 10.8146 14.5038 9.32218C14.5038 9.2665 14.5038 9.21081 14.5038 9.14398C13.0268 9.14398 11.573 9.14398 10.0845 9.14398C10.0845 9.19967 10.0845 9.25536 10.0845 9.31105C10.0845 10.8146 10.0845 12.3182 10.0845 13.8218C10.0845 13.8886 10.0845 13.9443 10.073 14.0111C11.5615 14 13.0384 14 14.5153 14Z" fill="#163C9C"/>
<path d="M9.71537 0C9.41537 0.289578 9.1269 0.568019 8.8269 0.84646C10.0731 2.04932 11.3308 3.26333 12.6 4.48846C12.2192 4.85601 11.85 5.20127 11.4692 5.57995C12.6461 5.72474 13.8 5.85839 14.9884 6.00318C14.8384 4.86714 14.7 3.75338 14.55 2.61734C14.1923 2.96261 13.8461 3.29674 13.4884 3.642C12.2192 2.41687 10.9615 1.20286 9.71537 0Z" fill="#163C9C"/>
</g>
<defs>
<clipPath id="clip0">
<rect width="15" height="14" fill="white"/>
</clipPath>
</defs>
</svg>
