<svg width="38" height="44" viewBox="0 0 38 44" fill="none" xmlns="http://www.w3.org/2000/svg">
<g clip-path="url(#clip0)">
<path d="M16.1059 0C16.1162 0 16.1162 0.0102469 16.1265 0.0102469C16.5598 0.102469 16.5598 0.102469 16.3844 0.532836C15.6312 2.40801 14.8781 4.29343 14.1249 6.1686C14.0733 6.30181 14.0114 6.36329 13.8566 6.36329C12.0201 6.36329 10.1835 6.36329 8.34697 6.36329C8.22316 6.36329 8.09935 6.3428 7.94458 6.33255C7.97553 6.25058 7.99617 6.19934 8.02712 6.14811C9.10016 4.36516 10.1629 2.56171 11.2669 0.778761C11.7724 -0.0409874 11.5867 0.133209 12.5875 0.0512343C12.8248 0.0307406 13.0621 0.0204937 13.3098 0C14.2384 0 15.167 0 16.1059 0Z" fill="#F2F2F2"/>
<path d="M25.0098 0C25.3194 0.0307406 25.6186 0.0614811 25.9281 0.0819748C26.1345 0.0922217 26.2789 0.184443 26.3924 0.348393C26.7122 0.840242 27.0527 1.3116 27.3519 1.81369C28.2186 3.26875 29.075 4.7238 29.9417 6.17885C29.9726 6.21984 29.9933 6.27107 30.0242 6.3428C29.921 6.35305 29.8385 6.36329 29.7456 6.36329C27.8678 6.36329 25.9797 6.36329 24.1019 6.36329C23.9471 6.36329 23.8955 6.29157 23.8542 6.1686C23.0907 4.27294 22.3375 2.37727 21.574 0.491849C21.4193 0.102469 21.4193 0.102469 21.801 0C22.8741 0 23.9368 0 25.0098 0Z" fill="#F2F2F2"/>
<path d="M20.3568 0.000115021C20.4394 0.225546 20.5219 0.461224 20.6148 0.686654C21.337 2.50035 22.0696 4.30379 22.8021 6.11749C22.8331 6.18922 22.8537 6.26094 22.895 6.36341C20.2949 6.36341 17.7258 6.36341 15.1155 6.36341C15.2393 6.04576 15.3425 5.73835 15.4663 5.43095C16.1576 3.69923 16.8488 1.97776 17.5401 0.24604C17.5711 0.164065 17.5917 0.0820899 17.6124 -0.0101318C18.5203 0.000115021 19.4386 0.000115021 20.3568 0.000115021Z" fill="#F2F2F2"/>
<path d="M19.6241 19.3565C19.8098 18.8236 19.9956 18.2908 20.1813 17.758C21.4297 14.3458 22.6781 10.9336 23.9163 7.52136C23.9679 7.38815 24.0194 7.33691 24.1639 7.33691C25.9798 7.35741 27.7957 7.35741 29.6116 7.3779C29.7561 7.3779 29.8902 7.3984 30.0862 7.40864C29.9521 7.57259 29.8489 7.71605 29.7458 7.83901C29.5084 8.12592 29.2815 8.40259 29.0338 8.67925C28.91 8.82271 28.9203 8.90468 29.0751 9.0174C29.6426 9.41703 30.2307 9.80641 30.7775 10.2368C34.0998 12.86 36.2356 16.2619 37.3912 20.2992C37.9689 22.2871 38.0721 24.3057 37.9483 26.3448C37.6697 31.1711 35.7094 35.2698 32.2736 38.6513C29.5291 41.3462 26.2171 42.996 22.4202 43.6723C18.2622 44.4203 14.2692 43.867 10.5033 41.9713C5.44763 39.4301 2.13565 35.4031 0.649906 29.9722C-1.18664 23.24 0.897531 16.0877 6.00478 11.3024C6.92305 10.4622 7.93419 9.73468 8.97627 9.03789C9.03818 8.9969 9.10008 8.95592 9.17231 8.89444C8.70801 8.38209 8.24372 7.88 7.75879 7.34716C7.87228 7.33691 7.9445 7.33691 8.01673 7.33691C9.93581 7.33691 11.8549 7.33691 13.774 7.33691C13.9184 7.33691 14.001 7.35741 14.0629 7.51111C15.4558 11.3742 16.859 15.227 18.2519 19.0798C18.2828 19.1515 18.3034 19.2335 18.2828 19.336C18.2106 19.254 18.1384 19.1823 18.0661 19.1003C16.5701 17.3993 15.074 15.6983 13.5676 13.9974C13.3406 13.7412 13.0827 13.5055 12.8454 13.2596C12.7113 13.1161 12.5771 13.0956 12.3914 13.1879C8.37785 15.2885 5.75716 18.4957 4.57062 22.8507C4.16823 24.316 4.11665 25.812 4.18887 27.3285C4.3849 31.3043 6.04605 34.6243 8.94532 37.3192C11.0811 39.3174 13.6399 40.5367 16.5185 41.0491C17.8392 41.2848 19.1701 41.2745 20.5011 41.1618C26.506 40.6494 31.9331 36.315 33.5014 29.9005C34.9562 23.9471 32.5418 17.7272 27.383 14.2228C26.7227 13.7719 26.0211 13.3723 25.3195 12.9317C23.4313 15.0835 21.5432 17.2354 19.6551 19.377C19.6551 19.3872 19.6344 19.3667 19.6241 19.3565Z" fill="#F2F2F2"/>
<path d="M22.9155 7.48033C21.6155 11.0155 20.3258 14.5404 19.0258 18.0653C18.9948 18.0653 18.9639 18.0653 18.9329 18.0653C17.6329 14.5404 16.3432 11.0155 15.0535 7.49058C15.4868 7.28564 22.4409 7.28564 22.9155 7.48033Z" fill="#F2F2F2"/>
</g>
<defs>
<clipPath id="clip0">
<rect width="38" height="44" fill="white"/>
</clipPath>
</defs>
</svg>
