<svg width="21" height="21" viewBox="0 0 21 21" fill="none" xmlns="http://www.w3.org/2000/svg">
<path d="M10.5 0C4.70914 0 0 4.70916 0 10.5C0 16.2909 4.70914 21 10.5 21C16.2909 21 21 16.2909 21 10.5C21 4.70916 16.2909 0 10.5 0ZM10.5 1.36957C15.5507 1.36957 19.6304 5.44932 19.6304 10.5C19.6304 15.5507 15.5507 19.6304 10.5 19.6304C5.44929 19.6304 1.36957 15.5507 1.36957 10.5C1.36957 5.44932 5.44929 1.36957 10.5 1.36957ZM6.61957 6.16304C5.73709 6.16304 5.02174 6.87841 5.02174 7.76087C5.02174 8.64333 5.73709 9.3587 6.61957 9.3587C7.50202 9.3587 8.21739 8.64333 8.21739 7.76087C8.21739 6.87841 7.50202 6.16304 6.61957 6.16304ZM14.3804 6.16304C13.498 6.16304 12.7826 6.87841 12.7826 7.76087C12.7826 8.64333 13.498 9.3587 14.3804 9.3587C15.2629 9.3587 15.9783 8.64333 15.9783 7.76087C15.9783 6.87841 15.2629 6.16304 14.3804 6.16304ZM5.40693 12.5543C5.18691 12.5671 4.98604 12.6914 4.86481 12.911C4.74924 13.1319 4.76483 13.4129 4.90761 13.6172C6.13168 15.4482 8.18235 16.663 10.5 16.663C12.8176 16.663 14.8683 15.4482 16.0924 13.6172C16.2922 13.3184 16.2057 12.8683 15.9069 12.6685C15.6081 12.4687 15.1509 12.5551 14.9511 12.8539C13.9624 14.3328 12.3417 15.2935 10.5 15.2935C8.65832 15.2935 7.03756 14.3328 6.04891 12.8539C5.86352 12.6365 5.62695 12.5415 5.40693 12.5543Z" fill="#ABABAB"/>
</svg>
