<svg width="14" height="14" viewBox="0 0 14 14" fill="none" xmlns="http://www.w3.org/2000/svg">
<path d="M7.02039 0C8.61748 0 10.2146 0 11.8117 0C13.018 0 14 0.985437 14 2.19515C14 5.38932 14 8.5835 14 11.7777C14 13.0044 13.0044 14 11.7743 14C8.59709 14 5.4199 14 2.24272 14C1.00922 14 0 12.9874 0 11.7505C0 8.5665 0 5.38592 0 2.20194C0 1.00583 1.00243 0.00339806 2.19515 0C3.80243 0 5.40971 0 7.02039 0ZM1.97767 8.65485C1.97767 8.68544 1.97427 8.69563 1.97767 8.70243C2.00146 8.73301 2.02184 8.77039 2.05243 8.79417C2.38544 9.08981 2.68786 9.43301 3.05825 9.67087C4.63835 10.7005 6.33398 10.7922 8.07718 10.167C9.23592 9.74903 10.1738 9.03883 10.7617 7.92427C10.8976 7.66602 10.9893 7.38398 11.1049 7.10534C11.533 7.09515 11.9442 7 12.3146 6.6466C11.9068 6.66359 11.5466 6.66019 11.166 6.50728C11.6383 6.42913 12.0257 6.28981 12.2704 5.85485C12.1718 5.88544 12.1107 5.91262 12.0461 5.91942C11.7777 5.95 11.5092 5.98398 11.2408 6.00437C11.1083 6.01456 11.0403 5.95 11.0029 5.80388C10.8602 5.22621 10.5578 4.74369 10.082 4.3801C9.71165 4.09466 9.29369 3.95194 8.82476 3.93835C8.88592 3.90437 8.94709 3.88398 9.00825 3.86359C9.18155 3.80922 9.35485 3.76165 9.52136 3.69029C9.57913 3.6665 9.60631 3.57476 9.64709 3.51359C9.57913 3.48981 9.50437 3.44223 9.43981 3.44903C9.2767 3.47282 9.11699 3.52039 8.95728 3.56117C9.03204 3.47621 9.1034 3.39466 9.17136 3.3165C9.15777 3.29612 9.14417 3.27573 9.13058 3.25534C8.89952 3.35388 8.66505 3.45583 8.43738 3.55437C8.45097 3.5068 8.46796 3.45583 8.49515 3.36408C8.03301 3.68689 7.72039 4.07767 7.48592 4.52621C7.25485 4.96796 7.05437 5.4301 6.85388 5.84806C6.53447 5.62718 6.22524 5.36214 5.87524 5.17864C5.34175 4.8966 4.78107 4.66214 4.23058 4.41748C3.94854 4.29175 3.65631 4.18981 3.35388 4.07087C3.3301 4.3835 3.42184 4.63835 3.60194 4.84563C3.77524 5.04612 3.98252 5.21602 4.16262 5.38252C3.99272 5.40631 3.80583 5.4335 3.60534 5.46408C3.71748 6.08932 4.16602 6.33738 4.69272 6.51748C4.45825 6.56845 4.23058 6.61942 4.06748 6.81311C4.17621 7.04417 4.34951 7.22087 4.57718 7.30922C4.79806 7.39757 5.03932 7.43495 5.26359 7.49272C5.10049 7.60146 4.88301 7.71699 4.95437 7.97524C5.04612 8.31845 5.36214 8.32864 5.65097 8.36602C4.93738 9.18155 3.35388 9.6233 1.97767 8.65485Z" fill="#65BBF2"/>
</svg>
