<svg width="15" height="12" viewBox="0 0 15 12" fill="none" xmlns="http://www.w3.org/2000/svg">
<g clip-path="url(#clip0)">
<path d="M3.2981 11.9965C1.31098 11.8993 -0.0758648 10.3745 0.00348205 8.46425C0.00693191 8.36005 0.0517801 8.24891 0.106978 8.15861C1.02119 6.70332 1.93885 5.24804 2.85652 3.79623C3.09456 3.42112 3.53269 3.4246 3.77073 3.80318C4.68494 5.25152 5.59916 6.69985 6.50647 8.15513C6.57202 8.2628 6.61342 8.40173 6.61687 8.52677C6.65482 10.2703 5.50601 11.6631 3.80178 11.9548C3.60169 11.9861 3.39815 11.9896 3.2981 11.9965ZM1.15574 8.4191C2.60813 8.4191 4.02257 8.4191 5.46461 8.4191C4.74359 7.27293 4.03637 6.14761 3.3119 5.00144C2.58398 6.15108 1.87676 7.27641 1.15574 8.4191Z" fill="url(#paint0_linear)"/>
<path d="M8.37626 8.66224C8.35211 8.42953 8.43491 8.23503 8.5591 8.044C9.44572 6.64776 10.3289 5.24458 11.212 3.84487C11.488 3.40724 11.9089 3.40377 12.1815 3.83792C13.0819 5.26889 13.9857 6.69639 14.8793 8.13083C14.9552 8.2524 15 8.40869 15.0035 8.55109C15.0276 10.2808 13.9029 11.6423 12.216 11.9514C10.4289 12.2779 8.61775 10.9129 8.41766 9.09292C8.40041 8.95052 8.39006 8.80464 8.37626 8.66224ZM11.6985 5.00145C10.9706 6.15457 10.2633 7.27989 9.54231 8.41911C10.9878 8.41911 12.4057 8.41911 13.8512 8.41911C13.1302 7.27642 12.423 6.15109 11.6985 5.00145Z" fill="url(#paint1_linear)"/>
<path d="M3.9674 1.33025C4.42623 1.33025 4.88852 1.32677 5.34735 1.33372C5.44049 1.33372 5.48879 1.30593 5.53364 1.22258C5.95452 0.427207 6.62035 0 7.51041 0C8.39358 0 9.0525 0.434153 9.46993 1.2191C9.52168 1.31288 9.57688 1.33372 9.67347 1.33372C10.5773 1.33025 11.4778 1.33025 12.3816 1.33372C12.7645 1.33719 13.0716 1.5699 13.1923 1.92069C13.3131 2.27149 13.213 2.65702 12.9301 2.89667C12.7576 3.04602 12.5507 3.10854 12.3264 3.10854C11.4467 3.10854 10.567 3.11201 9.68727 3.10507C9.57688 3.10507 9.51478 3.12938 9.45958 3.23357C9.0456 3.99768 8.40392 4.41447 7.53801 4.42837C6.65139 4.44226 5.98557 4.02547 5.55434 3.24747C5.49224 3.13285 5.42324 3.10159 5.3025 3.10159C4.42278 3.10507 3.54307 3.10854 2.66335 3.10159C2.13553 3.09812 1.75259 2.70217 1.75949 2.18813C1.76639 1.72619 2.12863 1.34067 2.58746 1.33025C3.04629 1.3233 3.50857 1.33372 3.9674 1.33025C3.9674 1.33372 3.9674 1.33025 3.9674 1.33025ZM7.50006 1.47959C7.09298 1.48307 6.76524 1.81302 6.76524 2.21939C6.76524 2.62576 7.09988 2.95919 7.50351 2.95919C7.90369 2.95919 8.24178 2.61881 8.23833 2.21592C8.23833 1.80608 7.90714 1.47612 7.50006 1.47959Z" fill="url(#paint2_linear)"/>
</g>
<defs>
<linearGradient id="paint0_linear" x1="3.30901" y1="3.51706" x2="3.30901" y2="11.9965" gradientUnits="userSpaceOnUse">
<stop stop-color="#8BA0B4"/>
</linearGradient>
<linearGradient id="paint1_linear" x1="11.688" y1="3.51447" x2="11.688" y2="11.9998" gradientUnits="userSpaceOnUse">
<stop stop-color="#8BA0B4"/>
</linearGradient>
<linearGradient id="paint2_linear" x1="7.50103" y1="0" x2="7.50103" y2="4.4287" gradientUnits="userSpaceOnUse">
<stop stop-color="#8BA0B4"/>
</linearGradient>
<clipPath id="clip0">
<rect width="15" height="12" fill="white"/>
</clipPath>
</defs>
</svg>
